# xmcd
#
# Track frame offsets: 
#        150
#        11658
#        28493
#        43199
#        57060
#        72509
#        85237
#        97379
#        108908
#        124832
#        136464
#        147848
#        162445
#        174108
#        186809
#        201507
#        213694
#        228116
#        238862
#        250050
#        266290
#
# Disc length: 3700 seconds
#
# Revision: 1
# Processed by: cddbd v1.5.2PL0 Copyright (c) Steve Scherf et al.
# Submitted via: ExactAudioCopy v0.99pb5
#
DISCID=390e7215
DTITLE=Various Artist - Echte Volksmusik aus den Bergen - Folge 4 - CD2
DYEAR=2000
DGENRE=Country
TTITLE0=Wetterstoa Musikanten - Marlene Boarischa
TTITLE1=Vilsleit'nmusi - Gugeruz Walzer
TTITLE2=Moarhuber Ziachmusi - Stradyleyson (Böhmische Polka)
TTITLE3=Klarinettenmusi Karl Edelmann - Diandl drah di (Boarischer)
TTITLE4=Röpfl Mannerg'sang - He Buam es wisst's
TTITLE5=Kirchleit'n Soat'nmusi - Rudi Boarischer
TTITLE6=Die Unterlandler - Katharina Polka
TTITLE7=Hinterleit'n Musi - An Hias sei vierter
TTITLE8=Kreuther Trio - Dorfmusi Marsch
TTITLE9=Tanzlmusi Karl Edelmann - Am Blaslweiher (Walzer)
TTITLE10=Lindmair Dreig'sang - Und a Almhüttn is mei Häusei
TTITLE11=Eisenkeller Musig - Tiroler Walzer
TTITLE12=Altmühldorfer Musikanten - Boarischer aus Rojen
TTITLE13=Die Unterlandler - Krapfn Walzer
TTITLE14=Stoaberg Musi - Auf'n Heuberg
TTITLE15=Altmühldorfer Musikanten - Pölsner Kaspar
TTITLE16=Bergmayr-Fichtner - Streitlied, Winter und Sommer
TTITLE17=Tiroler Kirchtagmusig - Neujahrswalzer
TTITLE18=Kreuther Trio - Alte steirische Landler
TTITLE19=Vilsleit'nmusi - Salzburger G'müat
TTITLE20=Tiroler Kirchtagmusig - Sternweis'
EXTD=
EXTT0=
EXTT1=
EXTT2=
EXTT3=
EXTT4=
EXTT5=
EXTT6=
EXTT7=
EXTT8=
EXTT9=
EXTT10=
EXTT11=
EXTT12=
EXTT13=
EXTT14=
EXTT15=
EXTT16=
EXTT17=
EXTT18=
EXTT19=
EXTT20=
PLAYORDER=
